<svg width="516" height="516" viewBox="0 0 516 516" fill="none" xmlns="http://www.w3.org/2000/svg">
<path d="M210.309 49.1647C221.677 49.1647 230.892 39.9496 230.892 28.5823C230.892 17.215 221.677 8 210.309 8C198.942 8 189.727 17.215 189.727 28.5823C189.727 39.9496 198.942 49.1647 210.309 49.1647ZM210.309 49.1647V112.418M306.193 49.1647C317.56 49.1647 326.775 39.9496 326.775 28.5823C326.775 17.215 317.56 8 306.193 8C294.825 8 285.61 17.215 285.61 28.5823C285.61 39.9496 294.825 49.1647 306.193 49.1647ZM306.193 49.1647V112.418M210.309 466.835C221.677 466.835 230.892 476.05 230.892 487.418C230.892 498.785 221.677 508 210.309 508C198.942 508 189.727 498.785 189.727 487.418C189.727 476.05 198.942 466.835 210.309 466.835ZM210.309 466.835V403.582M306.193 466.835C317.56 466.835 326.775 476.05 326.775 487.418C326.775 498.785 317.56 508 306.193 508C294.825 508 285.61 498.785 285.61 487.418C285.61 476.05 294.825 466.835 306.193 466.835ZM306.193 466.835V403.582M466.835 210.309C466.835 221.677 476.05 230.892 487.418 230.892C498.785 230.892 508 221.677 508 210.309C508 198.942 498.785 189.727 487.418 189.727C476.05 189.727 466.835 198.942 466.835 210.309ZM466.835 210.309H403.582M466.835 306.193C466.835 317.56 476.05 326.775 487.418 326.775C498.785 326.775 508 317.56 508 306.193C508 294.825 498.785 285.61 487.418 285.61C476.05 285.61 466.835 294.825 466.835 306.193ZM466.835 306.193H403.582M49.1647 210.309C49.1647 221.677 39.9496 230.892 28.5823 230.892C17.215 230.892 8 221.677 8 210.309C8 198.942 17.215 189.727 28.5823 189.727C39.9496 189.727 49.1647 198.942 49.1647 210.309ZM49.1647 210.309H112.418M49.1647 306.193C49.1647 317.56 39.9496 326.775 28.5823 326.775C17.215 326.775 8.00001 317.56 8.00001 306.193C8.00001 294.825 17.215 285.61 28.5823 285.61C39.9496 285.61 49.1647 294.825 49.1647 306.193ZM49.1647 306.193H112.418M162.116 112.418H146.554C127.701 112.418 112.418 127.701 112.418 146.554V161.614M162.116 112.418V70.751M162.116 112.418H258M258 112.418V70.751M258 112.418H353.884M353.884 112.418H369.446C388.299 112.418 403.582 127.701 403.582 146.554V161.614M353.884 112.418V70.751M403.582 258H445.249M403.582 258V161.614M403.582 258V353.884M403.582 161.614H445.249M403.582 353.884V369.446C403.582 388.299 388.299 403.582 369.446 403.582H353.884M403.582 353.884H445.249M112.418 258H70.751M112.418 258V161.614M112.418 258V353.884M112.418 161.614H70.751M112.418 353.884V369.446C112.418 388.299 127.701 403.582 146.554 403.582H162.116M112.418 353.884H70.751M162.116 403.582V444.747M162.116 403.582H258M258 403.582V444.747M258 403.582H353.884M353.884 403.582V444.747" stroke="black" stroke-width="15" stroke-linecap="round"/>
<path d="M217.337 345.349H188.723L189.225 170.65H233.401L258.502 286.112L282.598 170.65H326.775L327.277 345.349H299.164L299.666 216.835L272.558 345.349H243.442L217.337 216.835V345.349Z" fill="black"/>
</svg>
